<svg width="142" height="68" viewBox="0 0 142 68" fill="none" xmlns="http://www.w3.org/2000/svg">
<g opacity="0.5">
<path fill-rule="evenodd" clip-rule="evenodd" d="M31.324 23.822L26.923 23.822L22.4723 50.7552L16.712 50.7552L14.4873 50.7552L8.72698 50.7552L13.1777 23.822H3L4.11267 17.2441L9.87297 17.2441H38.197H42.1527H50.2523H54.2407H82.5647H86.5204H94.62L90.1693 44.1773H102.522L106.994 17.2441L112.754 17.2441H136.12L135.007 23.822L129.247 23.822L119.741 23.822L118.628 30.6944H132.7L131.588 37.2886L125.827 37.2886L117.516 37.2886L116.403 44.1773H131.669L130.557 50.7552L124.797 50.7552L107.191 50.7552H102.998L101.43 50.7552H97.2375L80.9571 50.7552L75.1968 50.7552L79.6681 23.822L75.6917 23.822L71.2907 23.822L66.8401 50.7552L61.0798 50.7552L58.855 50.7552L53.0947 50.7552L57.5454 23.822H49.1602L44.6889 50.7552L38.9286 50.7552L36.5893 50.7552L30.829 50.7552L35.3004 23.822L31.324 23.822Z" fill="black"/>
</g>
<g opacity="0.8">
<path fill-rule="evenodd" clip-rule="evenodd" d="M34.2039 23.822L29.8028 23.822L25.3522 50.7552L19.5919 50.7552L17.3671 50.7552L11.6069 50.7552L16.0575 23.822H5.87988L6.99255 17.2441L12.7528 17.2441H41.0768H45.0325H53.1321H57.1205H85.4445H89.4002H97.4998L93.0492 44.1773H105.402L109.874 17.2441L115.634 17.2441H139L137.887 23.822L132.127 23.822L122.621 23.822L121.508 30.6944H135.58L134.467 37.2886L128.707 37.2886L120.395 37.2886L119.283 44.1773H134.549L133.437 50.7552L127.676 50.7552L110.071 50.7552H105.878L104.31 50.7552H100.117L83.8369 50.7552L78.0767 50.7552L82.548 23.822L78.5716 23.822L74.1706 23.822L69.7199 50.7552L63.9596 50.7552L61.7348 50.7552L55.9746 50.7552L60.4253 23.822H52.0401L47.5687 50.7552L41.8085 50.7552L39.4692 50.7552L33.7089 50.7552L38.1802 23.822L34.2039 23.822Z" fill="black"/>
</g>
</svg>
